
<?xml version="1.0" encoding="UTF-8"?>
<svg width="42px" height="39px" viewBox="0 0 60 56" version="1.1" xmlns="http://www.w3.org/2000/svg" xmlns:xlink="http://www.w3.org/1999/xlink">
    <!-- Generator: Sketch 51.3 (57544) - http://www.bohemiancoding.com/sketch -->
    <title>Group 10</title>
    <desc>Created with Sketch.</desc>
    <defs></defs>
    <g id="Page-1" stroke="none" stroke-width="1" fill="none" fill-rule="evenodd">
        <g id="Home" transform="translate(-76.000000, -41.000000)">
            <g id="Group-10" transform="translate(76.000000, 41.000000)">
                <g id="Group-3" transform="translate(0.000000, 0.500000)">
                    <polygon id="Clip-2" points="0 0.0844966496 59.9306239 0.0844966496 59.9306239 55.0505938 0 55.0505938"></polygon>
                    <path d="M57.0477341,19.5024669 C66.6755825,35.2700538 50.4006437,50.6830108 34.6510636,54.1422524 C18.9002414,57.601494 -0.51691312,51.3807483 0.00968746356,32.028455 C0.497786589,14.1254073 7.72860875,4.79236831 23.4794309,1.33312669 C43.000912,-2.95443816 47.5589878,3.96404509 57.0477341,19.5024669" id="Fill-1" fill="#231F20"></path>
                </g>
                <path d="M27.813422,22.6932884 C27.4358357,22.9295204 26.8557379,23.7020631 26.0718219,25.0070855 C25.2865993,26.3146619 24.5026833,27.7793006 23.7148477,29.4010017 C22.9283186,31.0239797 22.2136485,32.6341885 21.5721438,34.230351 C20.9280262,35.8290673 20.5961684,37.057474 20.5713444,37.9206787 C20.9998851,36.3028084 21.5277219,34.739846 22.1561613,33.2292378 C22.7832941,31.7211835 23.4417836,30.3063451 24.1355493,28.9859994 C24.8267019,27.6669307 25.5087088,26.4640627 26.1828766,25.3748414 C26.8557379,24.2881739 27.4005595,23.3943229 27.813422,22.6932884 M22.1666135,30.781363 C21.9536496,30.9333177 21.872645,31.1478419 21.922293,31.4236588 C21.6061135,32.3366638 21.3056124,33.2458379 21.019483,34.1537352 C20.7320472,35.0603555 20.5020985,35.872483 20.33225,36.5875638 C20.7620973,34.9696934 21.3016928,33.390131 21.9536496,31.8475996 C22.6056065,30.307622 23.2889199,28.8595834 24.0048966,27.5073145 C24.7195667,26.1550456 25.4146389,24.9343005 26.0888067,23.8463562 C26.7603614,22.7596887 27.3051831,21.8658377 27.719352,21.1648031 C27.5246796,21.0843566 27.2111132,21.3371887 26.7773463,21.9258534 C26.3448859,22.5157951 25.8536319,23.2857839 25.3048907,24.2370967 C25.246097,24.2473122 25.2055946,24.26902 25.1820772,24.3022202 C25.1572532,24.3354204 25.1167508,24.3558512 25.0592636,24.3660667 L24.9717264,24.3813898 L24.9860982,24.4643903 L25.0161483,24.6303912 C24.8998674,24.6508221 24.8175562,24.6942377 24.7705212,24.7580842 C24.7809735,24.8142691 24.7770539,24.8857772 24.7639886,24.9738854 C24.7483103,25.0619935 24.809717,25.1526556 24.9469024,25.2433176 C24.8881086,25.2522561 24.8423802,25.2471484 24.8084105,25.2241636 C24.7744408,25.2011789 24.7274059,25.1947942 24.6712252,25.2050097 L24.5823814,25.2190559 C24.5340399,25.2854563 24.5170551,25.3467489 24.5248942,25.4016569 L24.5405725,25.4846574 L24.5849944,25.7336587 C24.467407,25.7540896 24.4308243,25.8753979 24.4700201,26.0975838 C24.4112264,26.1065223 24.3354478,26.1780304 24.2400714,26.3082772 L24.268815,26.4742781 C24.2100213,26.4844936 21.0547593,26.8254339 20.9332523,26.8164954 C20.8117453,26.8088338 23.7880132,26.4704473 23.7318325,26.4806628 C23.7514304,26.5930326 23.7736414,26.7181717 23.7984654,26.8560802 C23.8232894,26.9952656 23.8742439,27.11402 23.9526355,27.2161744 L23.6913302,27.2595901 L23.5175621,27.2902364 C23.4679141,27.3553598 23.4548488,27.443468 23.4744467,27.5545609 L23.5044969,27.7218387 C23.4561554,27.7869622 23.4470097,27.9031628 23.4770598,28.0691637 C23.4966577,28.1802566 23.4822859,28.2696417 23.4339444,28.3334882 C23.3856029,28.3998886 23.2745482,28.447135 23.1007801,28.4765044 L22.927012,28.5071507 C22.8786706,28.5722741 22.8342486,28.66549 22.7963594,28.7855214 C22.7205808,29.0281381 22.6879177,29.1775389 22.6970633,29.2324469 C22.6487219,29.2975704 22.5925412,29.321832 22.5298279,29.303955 C22.4671146,29.286078 22.410934,29.3103397 22.363899,29.3741862 C22.3939491,29.541464 22.4422906,29.6487261 22.51023,29.6934187 L22.7153547,29.8300502 L22.3233967,30.1543904 C22.2750552,30.2207908 22.2698291,30.2782526 22.3090249,30.3280529 C22.3482207,30.3791301 22.314251,30.4429766 22.2084223,30.5170385 C22.1509352,30.527254 22.1365634,30.6153621 22.1666135,30.781363 M19.3680333,42.8636747 C20.1911451,42.7793974 21.9771671,42.5137959 22.8865097,42.0719781 C23.7958523,41.6314373 24.6594665,41.1117268 25.4812718,40.5128466 C26.3017706,39.9152434 27.0713148,39.283163 27.7899045,38.6153286 C28.5098007,37.9500481 29.085979,37.3217985 29.5197459,36.7331338 C27.5142274,38.9064687 25.5622764,40.0595365 23.7213803,40.9750953 C21.8791776,41.8906541 19.8331568,42.7832282 19.3680333,42.8636747 M34.2441465,28.51992 C34.3042467,28.1802566 34.6543959,28.1138562 34.9980124,28.009148 C36.6546883,27.5085914 36.5475531,25.6659814 37.2596101,25.7975052 C38.0644306,25.9456291 38.2133746,26.6070788 37.7051358,27.7793006 C37.4934784,28.2747494 37.0283549,29.011538 36.3058456,29.9934972 C35.5833364,30.9754564 34.7144961,32.0672315 33.7045509,33.2700996 C32.6919927,34.4729677 31.5657667,35.7103129 30.3271794,36.9795813 C29.0872855,38.2526805 27.8356329,39.3674404 26.5709151,40.3264148 C27.2176458,39.9305665 27.8447786,39.5066258 28.4536201,39.0597003 C29.061155,38.6127748 29.5981375,38.1773416 30.0619545,37.7546778 C28.5084942,39.4517178 26.9249838,40.724817 25.3114233,41.5714216 C23.6978628,42.42058 22.4057079,42.9837062 21.4375716,43.2633538 L21.2638035,43.2940002 L20.8274236,43.3680621 C18.7369809,43.7256025 17.2201033,43.3565697 16.274178,42.2596869 C15.3295592,41.162804 14.9101641,39.57558 15.0159928,37.4980149 C15.1244345,35.4191728 15.7371955,32.9968366 16.8581954,30.2310062 C17.9805019,27.4651758 19.5561731,24.5639908 21.5865156,21.5274513 C21.9131473,21.0141254 22.6147522,20.5799692 23.6887171,20.2237057 C24.7613756,19.8687192 25.8288079,19.6427026 26.8897076,19.5469328 C27.9506073,19.4511631 28.8272867,19.5022403 29.5223589,19.6976106 C30.2148181,19.8942578 30.3990383,20.2492443 30.0724067,20.7625702 C28.6182424,23.0137978 27.2725199,25.2739639 26.0326261,27.5456224 C24.7914257,29.8185578 23.782787,31.8654766 23.0001775,33.6851019 C22.2188746,35.507281 21.7132487,36.9527657 21.4872196,38.0202792 C21.2585774,39.0890696 21.4349585,39.5743031 22.0163629,39.4747025 C22.7715354,39.3457326 23.7527369,38.8068681 24.9599676,37.8555553 C26.1671983,36.9067963 28.279852,36.473917 29.5262785,35.2301872 C30.7700919,33.9877343 29.867282,35.0092783 31.9067702,32.5933267 C33.952791,30.1684366 34.1291721,29.1711543 34.2441465,28.51992" id="Fill-4" fill="#FEFEFE"></path>
                <path d="M28.5896003,13.211593 C28.1608557,13.8798104 27.5710292,14.0740036 26.9400239,14.2947325 C26.3090185,14.5166675 25.7506817,14.5588834 25.2662246,14.420174 C24.7805564,14.2826708 24.4329584,13.9738916 24.2234307,13.490218 C24.0126919,13.0089566 23.8794662,13.1307797 24.158029,12.1429275 C24.395413,11.2974032 24.3711901,11.2986094 25.7385703,9.50021187 C26.8697776,8.01300586 27.9065158,8.24579642 28.5096648,9.79089853 C28.6852805,10.2420056 29.0898022,11.2998156 28.9820105,12.2165038 C28.9178199,12.7592797 29.0437788,12.4649746 28.5896003,13.211593" id="Fill-6" fill="#E3CB1E"></path>
                <path d="M41.6956995,33.4416084 L41.4589463,33.430105 L41.4516616,33.5911522 C41.3569603,33.5873177 41.3071814,33.6563379 41.2998967,33.7994909 L41.2003389,33.9030212 C41.1663436,33.9375313 41.1347765,33.9541473 41.1032094,33.9528691 L40.9951528,34.2711289 C40.9611575,34.3069172 40.8980233,34.3209768 40.803322,34.3158642 C40.7705408,34.3145861 40.7389737,34.3312021 40.7061925,34.3657122 L40.701336,34.4743551 C40.5981359,34.6494619 40.5617123,34.7555485 40.5920653,34.7926149 C40.4305874,34.8565224 40.3480274,34.9613309 40.3407426,35.1044839 C40.1064177,35.3818428 39.8708786,35.711606 39.6329112,36.0963297 C40.4682251,35.0571923 41.1566306,34.1906054 41.6932713,33.4952908 C42.2286978,32.8012544 42.6524253,32.1902978 42.9608115,31.6649774 C43.2679837,31.1409352 43.4464592,30.6718535 43.496238,30.2590104 C43.5460169,29.8474456 43.5023086,29.4039269 43.3663273,28.9284544 C43.5010945,29.4397151 43.4707415,29.9599229 43.2740543,30.4916341 C43.0761528,31.0220671 42.7896208,31.585732 42.4156721,32.1787944 C42.3501097,32.2120264 42.3015449,32.2452583 42.2687637,32.2797684 L42.2201989,32.3321727 L42.2044154,32.6555451 C42.1716342,32.6900552 42.1388529,32.7066711 42.1085,32.7041148 L42.0113704,32.7539627 L42.0502223,32.9175662 C42.0198693,32.916288 41.9725186,32.9060628 41.9105986,32.8843342 C41.8474644,32.8638838 41.7988996,32.8881687 41.7649043,32.958467 L41.7600478,33.0658318 C41.7588337,33.10162 41.772189,33.1207923 41.8049702,33.1220705 L41.7029842,33.2792831 L41.6956995,33.4416084 Z M41.6884148,32.5226173 C40.3528838,34.1151944 39.3403085,35.3882336 38.6494748,36.3455693 C37.9586411,37.302905 37.4742076,38.0544582 37.1973884,38.5989509 C36.9193552,39.1447217 36.8015856,39.525611 36.8380092,39.7441749 C36.8756469,39.9627389 36.9727764,40.0931103 37.1293978,40.1365675 C36.8841457,39.9448447 36.9521364,39.4885445 37.3321556,38.7676669 C37.7121749,38.0480675 38.1881096,37.269673 38.7648161,36.4324836 C39.3390944,35.5965723 39.9194433,34.8053964 40.5070769,34.0589557 C41.0922823,33.3125151 41.486871,32.8012544 41.6884148,32.5226173 Z M37.2253132,26.1944877 C37.4705652,26.3874887 37.6745372,26.558761 37.8432998,26.7108611 C38.0096341,26.8642393 38.0958365,27.0572402 38.1019071,27.291142 C38.1067636,27.5276001 38.0229894,27.8279657 37.8481562,28.1973516 C37.6733231,28.5680156 37.3685792,29.0307066 36.9327105,29.5854244 C37.5324853,28.8939443 37.927074,28.3635113 38.1176907,27.9941255 C38.3083074,27.6260177 38.376298,27.3320428 38.3228768,27.1134789 C38.2694555,26.8936368 38.1274036,26.7249207 37.8942928,26.6047745 C37.6636101,26.4859063 37.4389981,26.3491441 37.2253132,26.1944877 Z M36.7615197,38.8200712 C36.6194678,39.138331 36.56119,39.3799016 36.5866865,39.5422269 C36.6109689,39.7058304 36.652249,39.8259766 36.7129549,39.9001094 C36.6243242,39.7518438 36.6352513,39.5268891 36.7433079,39.2252453 C36.8513645,38.9261578 36.9909882,38.607898 37.1646072,38.2730222 C37.3370121,37.9394246 37.5179159,37.614774 37.7061043,37.3003487 C37.8930786,36.9846452 38.0545565,36.7405182 38.1881096,36.5666895 C37.887008,36.9488569 37.641756,37.2875672 37.4559958,37.5853765 C37.2690215,37.8819077 37.1063295,38.1541541 36.969134,38.3982811 C36.9715623,38.3267046 37.0431953,38.1682137 37.1803908,37.9228086 C37.3175862,37.6774035 37.4875629,37.3974882 37.6915349,37.0830629 C37.8955069,36.7686375 38.1067636,36.4631593 38.325305,36.1679062 C38.5426323,35.8726531 38.7356773,35.6387513 38.9020116,35.4662009 C38.5729853,35.7397253 38.2245331,36.1282835 37.8542268,36.6318753 C37.4827064,37.1354671 37.1609649,37.6518404 36.8841457,38.178439 C36.6073266,38.7050375 36.4203522,39.1830663 36.3220086,39.609969 C36.2248791,40.0381498 36.2989403,40.3116743 36.5478347,40.4318206 C36.366931,40.2068659 36.3402204,39.9090565 36.4677029,39.5371143 C36.5951854,39.163894 36.6923149,38.9261578 36.7615197,38.8200712 Z M33.6995115,35.1019276 C33.4384759,35.2706436 33.0596707,35.6298043 32.5618819,36.1819659 C32.0616649,36.7354056 31.5359513,37.3668126 30.9835272,38.077465 C30.4298889,38.7906737 29.8981047,39.5204983 29.390603,40.2707734 C28.8831012,41.0197704 28.4921549,41.6409522 28.2165498,42.1317625 C28.3549594,41.8850792 28.6439197,41.4492294 29.0810026,40.8216569 C29.5217278,40.1953625 30.0098037,39.525611 30.5464443,38.8136804 C31.084299,38.1017499 31.6367232,37.3987664 32.206145,36.7060081 C32.7731386,36.0132498 33.2721416,35.4789824 33.6995115,35.1019276 Z M30.5719408,38.246181 C29.8993188,39.1511125 29.2594781,40.039428 28.6512045,40.9098493 C28.0429308,41.7789926 27.5839938,42.515208 27.2719652,43.1121049 C27.4759372,42.7976795 27.8571706,42.2404054 28.4144512,41.437726 C28.972946,40.6363249 29.6030738,39.7671816 30.308477,38.8277401 C31.0138801,37.8895767 31.726568,36.9795326 32.4465406,36.0963297 C33.1652991,35.2118486 33.7881421,34.5305937 34.3150698,34.052565 C34.0540342,34.2200029 33.7177232,34.5190904 33.3037086,34.9485494 C32.8884799,35.3792865 32.4307571,35.8879909 31.93054,36.4759408 C31.8674058,36.4733845 31.8358387,36.4797752 31.8346246,36.4976694 C31.8346246,36.5168416 31.8176269,36.5245105 31.787274,36.5232324 L31.7374951,36.5743585 L31.7326386,36.6817232 C31.7302104,36.7175115 31.7119986,36.7532997 31.6804315,36.7878098 C31.6488644,36.7865317 31.6148691,36.8031476 31.583302,36.8363796 C31.5493066,36.8708897 31.532309,36.9066779 31.5310948,36.9424662 L31.4788877,37.0472746 L31.471603,37.2095999 L31.4218241,37.260726 L31.4193959,37.3156865 L31.2324216,37.2517789 C31.1692874,37.2492226 31.1207226,37.2658386 31.0879414,37.2990705 C31.0551602,37.3335806 31.022379,37.3501966 30.9908119,37.3489184 C30.9604589,37.3476403 30.9434612,37.3642563 30.9422471,37.4000445 L30.9373906,37.5074093 L30.8354046,37.6659001 L30.8232634,37.934312 L30.6314326,37.9790473 C30.5998655,37.9777691 30.5828679,37.9956633 30.5816537,38.0301734 L30.5719408,38.246181 Z M26.4718608,45.1277503 C26.8785907,44.4988996 27.4698666,43.643816 28.2456887,42.5650559 C29.0215108,41.4862958 29.8616812,40.3653567 30.7661998,39.2022385 C31.6719326,38.0403986 32.5995196,36.9143468 33.5489607,35.8253615 C34.4984018,34.7376543 35.3361439,33.850617 36.0621871,33.1655276 C35.4089911,33.6371656 34.6489526,34.347818 33.7857139,35.2962067 C32.920047,36.2445953 32.0191707,37.3271899 31.0806567,38.5427122 C31.0175225,38.5388778 30.9847413,38.5733879 30.9810989,38.6449644 C30.9786707,38.717819 30.9592448,38.7702232 30.9264636,38.8047333 L30.7856257,38.7983426 L30.7322045,38.903151 L30.6812115,39.0092376 L30.4845242,39.1613377 L30.482096,39.2162982 C30.4808819,39.2520865 30.4711689,39.2776495 30.4541712,39.2955436 C30.4383877,39.3121596 30.4286747,39.3402789 30.4274606,39.374789 C30.3946794,39.3735109 30.3133334,39.4425311 30.1809945,39.5792933 C30.0826508,39.6470354 30.0790085,39.736506 30.1688533,39.8489834 C30.104505,39.8822153 30.0559402,39.8975531 30.0243731,39.896275 C29.992806,39.8937187 29.9612389,39.9116128 29.9272436,39.9448447 C29.8956765,39.9435666 29.8798929,39.9614607 29.8774647,39.9959708 L29.8750365,40.0496532 L29.87018,40.1582961 L29.7317704,40.098223 L29.7293422,40.1519053 C29.7256998,40.22476 29.7390551,40.2592701 29.7706222,40.2618264 C29.197558,41.0619494 28.6244938,41.8722976 28.0502155,42.6915929 C27.4759372,43.5083319 26.9502237,44.3212365 26.4718608,45.1277503 Z M46.9261243,33.9618162 C46.9904727,33.2741705 47.7517253,32.4229214 48.0601115,32.2925499 C48.3684978,32.1634566 48.6003945,32.1289465 48.7570159,32.1902978 C48.9124231,32.2529272 48.9937691,32.4114181 48.9998397,32.6657703 C49.003482,32.9201225 48.8857125,33.2230445 48.6489593,33.5745362 C48.4449873,33.8544514 48.0491845,34.305639 47.4651932,34.9306552 C46.8812019,35.5543933 46.1903682,36.2279793 45.3939061,36.9514132 C44.5986581,37.6748472 43.7451324,38.3854996 42.8393996,39.0846486 C41.9324527,39.7837976 41.08864,40.3500189 40.3043191,40.7833123 C39.0659176,41.4479513 38.0302741,41.8045556 37.2010308,41.8556817 C36.3705734,41.9042514 35.7501585,41.7291446 35.3385722,41.327805 C34.9269858,40.9264653 34.744868,40.3385155 34.7946468,39.5601211 C34.8456398,38.7830048 35.1479555,37.8819077 35.7028079,36.8555519 C36.0124082,36.3276752 36.357218,35.7550632 36.7348091,35.1377158 C37.1124001,34.5229248 37.488777,33.9234716 37.8651539,33.3431907 C38.2403167,32.7629098 38.6154795,32.2107482 38.9894281,31.6841497 C39.3621627,31.1588293 39.7009019,30.7038073 40.0044317,30.3190836 C39.4252969,30.4724618 38.6446183,30.987557 37.6684666,31.8643691 C36.6898867,32.7411812 35.6493866,33.7790405 34.5445383,34.9766687 C33.4409041,36.1742969 32.3651946,37.4358328 31.3210522,38.7638325 C30.2756957,40.0918322 29.411243,41.2638974 28.7289081,42.2825844 C28.5249361,42.5624996 28.2626864,42.9574485 27.9360883,43.4687092 C27.6107044,43.9774137 27.2780358,44.4976214 26.9368684,45.0254981 C26.5944868,45.5520967 26.2630323,46.042907 25.9388625,46.4992071 C25.617121,46.9555073 25.3864383,47.289105 25.250457,47.5 C25.1241886,47.4936092 24.8619389,47.4808277 24.464922,47.4616554 C24.0666909,47.4424832 23.6708881,47.3951916 23.2762994,47.3210587 C22.8817108,47.2469259 22.5514704,47.1497864 22.2867924,47.0270838 C22.0209004,46.9056594 21.9407685,46.7561157 22.0427545,46.5797307 C22.9727697,44.9935443 24.0715474,43.20541 25.3378736,41.2178839 C26.6029856,39.2303579 27.8595988,37.2786201 29.1077132,35.3626706 C30.3546135,33.446721 31.4995277,31.6790371 32.542456,30.0608969 C33.5841701,28.4440349 34.3636346,27.2118966 34.878421,26.3670382 L33.694655,26.145918 C34.0297518,25.7624724 34.5251124,25.5515774 35.1795226,25.5106765 C35.8327186,25.4697757 36.459204,25.5464648 37.0565506,25.7394657 C37.651469,25.9311885 38.1091918,26.2072692 38.4285051,26.5689862 C38.7453902,26.929425 38.7526749,27.3179832 38.447931,27.7397733 C38.3107356,27.9506683 38.0970506,28.2753189 37.8068762,28.7150031 C37.5167017,29.1546873 37.1840331,29.6557228 36.8100845,30.2168314 C36.4337075,30.7792182 36.0342624,31.367168 35.6093207,31.9806809 C35.1831649,32.5941938 34.7995033,33.1655276 34.4583359,33.6934043 C35.1309578,32.8920031 35.7003796,32.2567617 36.1666014,31.7902363 C36.6328231,31.3237109 37.1816049,30.7983905 37.8129468,30.2117188 C39.039207,29.0741637 40.1222012,28.3750147 41.058287,28.1129936 C41.9919445,27.8496943 42.7070607,27.8854826 43.2024212,28.217802 C43.6953536,28.5501215 43.9187515,29.1150646 43.8677585,29.910075 C43.8155513,30.7063636 43.4185344,31.5934009 42.6754936,32.5724652 C38.9602893,37.3617 37.3576521,39.7671816 37.866368,39.7927447 C38.2803826,39.7774069 38.9299363,39.5000479 39.8126009,38.9632242 C40.6964795,38.4264004 41.6774877,37.8691262 42.5492252,37.0293805 C44.6362958,35.0201259 44.4529638,36.2548205 45.1947906,35.829196 C46.1588011,35.2757562 46.8253525,35.0201259 46.9261243,33.9618162 Z" id="Fill-8" fill="#FEFEFE"></path>
            </g>
        </g>
    </g>
</svg>